<?xml version="1.0" encoding="utf-8"?>
<!-- Generator: Adobe Illustrator 24.2.0, SVG Export Plug-In . SVG Version: 6.00 Build 0)  -->
<svg version="1.1" id="WHITE_FANGALOKA" xmlns="http://www.w3.org/2000/svg" xmlns:xlink="http://www.w3.org/1999/xlink" x="0px"
	 y="0px" viewBox="0 0 1270 800" style="enable-background:new 0 0 1270 800;" xml:space="preserve">
<style type="text/css">
	.st0{fill:#FFFFFF;}
</style>
<g>
	<path class="st0" d="M558.5,218.6c0,42.3,34.5,76.8,76.8,76.8c42.3,0,76.8-34.5,76.8-76.8s-34.5-76.8-76.8-76.8
		C593,141.8,558.5,176.2,558.5,218.6z M687.2,218.6c0,28.6-23.3,51.9-51.9,51.9c-28.6,0-51.9-23.3-51.9-51.9s23.3-51.9,51.9-51.9
		C663.9,166.7,687.2,190,687.2,218.6z"/>
	<path class="st0" d="M823.3,198.3l-1.8-1.8L629.7,387.2c-26.5,1.2-40.9,10.9-53.7,19.4c-12.3,8.2-22.9,15.4-45.1,15.4
		c-22.2,0-32.8-7.1-45.1-15.4c-13.7-9.2-29.1-19.6-59-19.6s-45.3,10.4-59,19.6c-12.3,8.2-22.9,15.4-45.1,15.4
		c-9.4,0-17.2-1.3-24.6-4l-18-18L635,45.2l141.1,141.1l17.6-17.6L635,10L245,400l37,37l-0.5,1l2.3,1c0.2,0.1,0.3,0.1,0.5,0.2
		L635,790l390-390L823.3,198.3z M843.1,387.1c-29.8,0-45.3,10.4-59,19.6c-12.3,8.2-22.9,15.4-45.1,15.4c-22.2,0-32.8-7.1-45.1-15.4
		c-8.6-5.8-18.3-12.3-32.2-16.2l159.8-158.8L989.8,400l-18.2,18.2c-7.1,2.6-15.2,3.9-24.4,3.9c-22.2,0-32.8-7.1-45.1-15.4
		C888.4,397.5,873,387.1,843.1,387.1z M798,427.4c12.3-8.2,22.9-15.4,45.1-15.4s32.8,7.1,45.1,15.4c13,8.7,27.7,18.5,54.7,19.5
		l-46.2,46.2c-12.3-7.9-27.8-16.1-53.6-16.1c-29.8,0-45.3,10.4-59,19.6c-12.3,8.2-22.9,15.4-45.1,15.4c-22.2,0-32.8-7.1-45.1-15.4
		c-13.7-9.2-29.1-19.6-59-19.6s-45.3,10.4-59,19.6c-12.3,8.2-22.9,15.4-45.1,15.4c-22.2,0-32.8-7.1-45.1-15.4
		c-13.7-9.2-29.1-19.6-59-19.6c-26,0-40.8,7.7-53.6,16.1l-46.2-46.2c27.1-0.9,41.7-10.8,54.7-19.5c12.3-8.2,22.9-15.4,45.1-15.4
		c22.2,0,32.8,7.1,45.1,15.4c13.7,9.2,29.1,19.6,59,19.6c29.8,0,45.3-10.4,59-19.6c12.3-8.2,22.9-15.4,45.1-15.4s32.8,7.1,45.1,15.4
		c13.7,9.2,29.1,19.6,59,19.6C768.9,447,784.4,436.6,798,427.4z M426.9,501.9c22.2,0,32.8,7.1,45.1,15.4c13.7,9.2,29.1,19.6,59,19.6
		c29.8,0,45.3-10.4,59-19.6c12.3-8.2,22.9-15.4,45.1-15.4s32.8,7.1,45.1,15.4c13.7,9.2,29.1,19.6,59,19.6c29.8,0,45.3-10.4,59-19.6
		c12.3-8.2,22.9-15.4,45.1-15.4c16.1,0,25.9,3.5,35.6,9.2l-58.1,58.1c-16.2,3.7-27.4,11.2-36.4,17.2c-12.3,8.2-22.9,15.4-45.1,15.4
		s-32.8-7.1-45.1-15.4c-13.7-9.2-29.1-19.6-59-19.6c-29.8,0-45.3,10.4-59,19.6c-12.3,8.2-22.9,15.4-45.1,15.4
		c-22.2,0-32.8-7.1-45.1-15.4c-9-6-20.1-13.6-36.4-17.2l-58.1-58.1C401.1,505.4,410.9,501.9,426.9,501.9z M530.9,626.8
		c29.8,0,45.3-10.4,59-19.6c12.3-8.2,22.9-15.4,45.1-15.4s32.8,7.1,45.1,15.4c13.7,9.2,29.1,19.6,59,19.6c10,0,19.2-1.2,27.7-3.7
		L705.9,684c-4.2-2.3-7.9-4.9-12-7.5c-13.7-9.2-29.1-19.6-59-19.6c-29.8,0-45.3,10.4-59,19.6c-4.2,2.8-7.9,5.3-12,7.5l-60.8-61
		C511.7,625.5,520.9,626.8,530.9,626.8z M589.9,697c12.3-8.2,22.9-15.4,45.1-15.4s32.8,7.1,45.1,15.4c2.5,1.7,5,3.4,7.6,5.1
		L635,754.8l-52.7-52.7C584.8,700.4,587.2,698.8,589.9,697z"/>
</g>
</svg>
