<?xml version="1.0" encoding="utf-8"?>
<!-- Generator: Adobe Illustrator 24.2.0, SVG Export Plug-In . SVG Version: 6.00 Build 0)  -->
<svg version="1.1" id="WHITE_TARTALO" xmlns="http://www.w3.org/2000/svg" xmlns:xlink="http://www.w3.org/1999/xlink" x="0px"
	 y="0px" viewBox="0 0 1270 800" style="enable-background:new 0 0 1270 800;" xml:space="preserve">
<style type="text/css">
	.st0{fill:#FFFFFF;}
</style>
<path class="st0" d="M1019.8,300.1v-15.4h-57.7v29.8h-96.3v-91.4h96.3v-53.8c18.1-1.3,37.2-2.8,57.7-4.5l38.5-68.9
	c-198.2,17.6-279.3,17.6-423.3,17.6s-225.1,0-423.3-17.6l38.5,68.9c20.7,1.7,40,3.2,58.3,4.5v53.8h95.7v91.4h-96.3v-29.8h-57.7v15.4
	H0V377h250.2v15.4h57.7v-29.8h96.3v303.1h0l-9.6,38.5h48.1h0h48.1l-9.6-38.5h0V362.6H789v303.1h0l-9.6,38.5h48.1h0h48.1l-9.6-38.5h0
	V362.6h96.3v29.8h57.7V377H1270v-76.9H1019.8z M789,314.5H481v-91.4H789V314.5z"/>
</svg>
