<?xml version="1.0" encoding="utf-8"?>
<!-- Generator: Adobe Illustrator 24.2.0, SVG Export Plug-In . SVG Version: 6.00 Build 0)  -->
<svg version="1.1" id="WHITE_TARTALO" xmlns="http://www.w3.org/2000/svg" xmlns:xlink="http://www.w3.org/1999/xlink" x="0px"
	 y="0px" viewBox="0 0 1270 800" style="enable-background:new 0 0 1270 800;" xml:space="preserve">
<style type="text/css">
	.st0{fill:#FFFFFF;}
</style>
<path class="st0" d="M1202.5,292.5l-0.6-0.2l-0.6-0.2l-1.3-0.4c-0.5-0.2-1-0.4-1.5-0.6c-1.6-0.6-3-1.1-4.5-1.7l-0.1,0l-0.1,0
	c-53-20.3-103.3-50.6-156.6-82.7l-2.9-1.8c-55.6-33.7-113-68.5-177.6-95c-73.7-30.2-146.5-44.8-222.7-44.8
	c-76.2,0-149,14.6-222.7,44.8c-64.5,26.4-122,61.2-177.7,94.8l-0.1,0c-56.3,34.1-109.4,66.2-166.1,87c-10.7,3.9-19.3,11.7-24.1,22.1
	c-4.8,10.3-5.3,21.9-1.5,32.5c6.1,16.9,22.2,28.2,40.2,28.2c4.9,0,9.8-0.8,14.5-2.5l0.2-0.1l0.2-0.1l1.9-0.7
	c1.6-0.6,3.2-1.2,4.9-1.9c0,0.1,0.1,0.1,0.1,0.2c1.6,2.8,3.2,5.6,5,8.6c6.4,10.7,13.1,21.3,20.2,31.7c-2.1,1-4.1,2.2-6,3.6
	c-7.6,5.6-12.7,14.3-14,23.7c-1.3,9.4,1.1,18.7,6.7,26.3c21.1,29,44.9,56.7,70.6,82.2c5.4,5.4,12.4,8.9,19.9,10
	c1.6,7.1,5.3,13.8,11.2,19l0,0l0,0c7,6.2,14.7,12.6,23.5,19.7c6.3,5.2,14.2,8,22.4,8c10.8,0,20.9-4.8,27.7-13.3l0,0l0,0
	c1.6-2,3-4.1,4.1-6.4c5.6,4.1,11.2,8,16.9,11.9c5.8,4.1,12.8,6.2,20.2,6.2c0.3,0,0.6,0,0.9,0c2.9,6.4,7.7,12,14.1,15.9l0.8,0.5
	l0.9,0.4l0.1,0c5.1,2.8,10.8,4.3,16.7,4.3c3.4,5.3,8.3,9.7,14,12.6l0.1,0l0.1,0l0.1,0c7.7,3.8,15.6,7.7,23.7,11.3
	c0.2,0.1,0.3,0.1,0.5,0.2c-1.1,1.8-2,3.7-2.8,5.8c-6.8,18.4,2.6,38.9,21.1,45.7l0.1,0l0.1,0c18.9,6.9,37.4,12.7,55.2,17.3l0.4,0.1
	l0.4,0.1c2.7,0.6,5.4,0.9,8.1,0.9c6.2,0,12-1.6,17.2-4.4c5.4,7.6,13.8,12.8,23,14.4c35.5,6.2,71.5,9.4,107.1,9.4
	c11.3,0,22.6-0.3,33.7-0.9c9.1-0.5,17.5-4.3,23.7-10.8c5.7,3.9,12.7,6.2,20,6.2c1.3,0,3,0,4.9-0.3l0.2,0l0.1,0l0.1,0
	c6.8-0.8,13-3.6,18-7.7c3.7,1.3,7.7,2,11.8,2c1.9,0,4-0.2,6.1-0.5l0.4-0.1l0.4-0.1c19.5-3.8,38.6-8.6,56.8-14.2
	c9.1-2.7,16.6-8.8,21.1-17.2c4.4-8.2,5.5-17.8,2.9-26.8l-0.1-0.3l-0.1-0.3c-4.6-15-18.3-25-34.1-25c-3.3,0-6.6,0.5-9.8,1.4l-0.2,0
	l-0.2,0.1c-3.1,0.9-6.2,1.8-9.3,2.7c-0.1-1.2-0.3-2.4-0.6-3.6c-0.4-1.8-0.9-3.5-1.6-5.2c13.2-3.7,26.2-8,39-12.7
	c7.9-3,15.8-6.1,23.6-9.5c0.6,1.7,1.3,3.3,2.1,4.9l0,0.1l0,0.1c6.2,11.8,18.3,19.1,31.5,19.1c5.7,0,11.3-1.4,16.3-4
	c5.1-2.6,10.1-5.3,15.2-8c0.8,2.1,1.7,4.1,2.9,6l0,0l0,0c6.5,10.7,17.9,17,30.5,17c6.6,0,13-1.8,18.6-5.3l0.1,0l0.1,0
	c9.4-5.8,19.1-12.1,29.6-19.3l0.1-0.1l0.1-0.1c16.6-11.5,32.9-23.9,48.4-36.8c6.3-5.2,10.3-12.2,12-19.6c7.6-0.7,14.8-3.9,20.6-9.2
	l0.1-0.1l0.1-0.1c0.8-0.7,1.5-1.4,2.2-2.1c0.5-0.5,1-0.9,1.4-1.4l0.2-0.2l0.2-0.2c7-6.6,10.9-15.5,11-25.1c0.2-9.5-3.4-18.5-10-25.3
	c-1.9-1.9-3.9-3.6-6.2-5.1c8.5-9,16.8-18.3,24.8-27.8l0.1-0.1l0.1-0.1c1.3-1.5,2.5-3,3.7-4.5c1.2-1.5,2.4-2.9,3.7-4.4l0.1-0.2
	l0.1-0.2c5.3-6.6,10.6-13.4,15.2-19.2l0.1-0.2l0.1-0.2c0.3-0.4,0.6-0.8,0.9-1.2c0.9-1.2,1.9-2.5,2.9-4c3.7-5.2,6-11.1,6.6-17.3
	c5.8-2.6,10.9-6.8,14.6-12.2l0.2-0.2l0.2-0.2c7.7-11.6,15.2-23.7,22.3-36c1.2,0.5,2.3,0.9,3.3,1.2c1.1,0.4,2.1,0.8,3,1.1l0.5,0.2
	l0.5,0.2l2,0.7c4.7,1.6,9.6,2.5,14.3,2.5c8.7,0,17.1-2.6,24.2-7.5c7.2-5,12.7-11.9,15.8-20.2l0.2-0.6l0.2-0.6
	C1235.7,324.5,1224.3,300.5,1202.5,292.5z"/>
<g>
	<path d="M338.6,556.3c-42.5-28.8-82.3-63.9-118.1-104.3c-3.8-4.4-10.6-4.8-15-0.9c-4.4,3.8-4.8,10.6-0.9,15
		c37,41.7,78,78,122,107.8c1.8,1.3,3.8,1.8,6,1.8c3.4,0,6.7-1.6,8.8-4.7C344.7,566.2,343.5,559.6,338.6,556.3z"/>
	<path d="M371.9,577.2l-0.7-0.4c-5-2.9-11.5-1.2-14.5,3.8c-2.9,5-1.2,11.5,3.8,14.5l0.6,0.3c1.7,1,3.5,1.4,5.3,1.4
		c3.6,0,7.2-1.9,9.2-5.2C378.6,586.6,376.9,580.1,371.9,577.2z"/>
	<path d="M153.1,435.9l-0.3-0.4c-3.5-4.7-10-5.6-14.7-2.1s-5.7,10.3-2.1,15c20.3,27.9,43.2,54.6,68.2,79.4c2,2,4.8,3.1,7.5,3.1
		c2.8,0,5.4-1.1,7.5-3.1c4.2-4.2,4.1-10.9,0-15C194.8,488.6,172.7,462.8,153.1,435.9z"/>
	<path d="M270.2,558.3c-7.5-6-14.9-12.2-22-18.5c-4.4-3.8-11.1-3.4-15,1s-3.4,11.1,1,15c7.4,6.5,15.1,12.9,22.8,19.1
		c1.9,1.6,4.3,2.4,6.6,2.4c3.1,0,6.2-1.4,8.3-4C275.6,568.7,274.8,562.1,270.2,558.3z"/>
	<path d="M489.8,670.1c-17.1-4.5-34.3-9.8-51-16c-5.4-2-11.6,0.9-13.6,6.3c-2,5.4,0.9,11.6,6.3,13.6c17.3,6.3,35.2,12,52.9,16.6
		c0.9,0.2,1.8,0.3,2.7,0.3c4.7,0,9-3.1,10.3-7.9C498.9,677.3,495.5,671.6,489.8,670.1z"/>
	<path d="M938.4,563.2c-3.2-4.9-9.8-6.2-14.7-3c-17.4,11.4-35.4,22-53.5,31.3c-5.2,2.7-7.3,9.1-4.6,14.3c1.9,3.6,5.6,5.8,9.4,5.8
		c1.6,0,3.3-0.4,4.8-1.2c18.8-9.6,37.5-20.5,55.6-32.5C940.4,574.8,941.6,568.2,938.4,563.2z"/>
	<path d="M1041.7,520c-1.2,1.2-2.4,2.2-3.6,3.4c-4.3,4.1-4.5,10.8-0.4,15c2.1,2.2,4.9,3.3,7.7,3.3c2.7,0,5.2-1,7.3-2.9
		c1.3-1.2,2.5-2.4,3.7-3.5c4.3-4.1,4.4-10.8,0.3-15C1052.6,516,1045.9,515.9,1041.7,520z"/>
	<path d="M1007.3,550.7c-14.5,12.1-29.8,23.7-45.2,34.3c-9.1,6.3-18.4,12.4-27.8,18.1c-5,3.1-6.5,9.6-3.5,14.6c2,3.3,5.4,5,9.1,5
		c1.9,0,3.8-0.5,5.6-1.6c9.7-6,19.3-12.3,28.7-18.7c15.9-11,31.7-23,46.7-35.5c4.5-3.7,5.1-10.5,1.4-15
		C1018.5,547.6,1011.8,547,1007.3,550.7z"/>
	<path d="M797.3,664.7c-17.2,5.1-34.8,9.5-52.5,13c-5.8,1.2-9.5,6.7-8.3,12.5c1,5,5.4,8.5,10.4,8.5c0.6,0,1.4-0.1,2-0.2
		c18.3-3.6,36.5-8.1,54.4-13.6c5.7-1.7,8.8-7.6,7.2-13.2C808.8,666.2,803,663.1,797.3,664.7z"/>
	<path d="M711.3,683.4l-0.9,0.1c-5.8,0.7-9.8,6.1-9.1,12c0.7,5.3,5.2,9.2,10.5,9.2c0.4,0,1,0,1.4-0.1l0.9-0.1
		c5.8-0.7,9.8-6.1,9.1-12C722.5,686.8,717.2,682.6,711.3,683.4z"/>
	<path d="M665.3,687.8c-2.6,0.1-5.1,0.2-7.7,0.3c-3.3-0.1-10.4-1.2-10.5-9.7c0-8.9,12-9.1,12-9.1h-0.6c30.2-1.4,60.2-5.1,89.3-11.4
		c5.8-1.3,9.4-6.8,8.1-12.6c-1.3-5.8-6.8-9.4-12.6-8.1c-35.5,7.7-72.2,11.5-109.2,11.5c-73.5,0-144.6-15.2-211.3-45.1
		c-7.4-3.3-14.7-6.8-22-10.5c-5.2-2.7-11.6-0.5-14.2,4.7c-2.7,5.2-0.5,11.6,4.7,14.2c7.5,3.7,15.2,7.5,22.9,10.9
		c64.4,28.8,132.6,44.6,203.1,46.7c-0.1,0-0.1,0-0.1,0c1.7,0,11.3,0.6,10.5,9.7c-0.7,8.3-8.9,9.1-11.8,9.1
		c-27.2-0.9-54.3-3.6-80.8-8.2c-5.8-1.1-11.3,2.9-12.3,8.7c-1.1,5.8,2.9,11.3,8.7,12.3c33.7,5.9,68.2,9,102.8,9
		c10.8,0,21.7-0.3,32.4-0.9c5.9-0.3,10.4-5.3,10-11.1C676.1,692,671.2,687.4,665.3,687.8z"/>
	<path d="M648.9,473.4c0.6,4.7,4.7,8.1,9.3,8.1c0.4,0,0.9,0,1.4-0.1c5.1-0.7,8.8-5.6,8-10.7l-0.1-0.9c-0.7-5.1-5.4-8.8-10.7-8
		c-5.1,0.7-8.8,5.4-8,10.7L648.9,473.4z"/>
	<path d="M724,462.4c1.8,2.9,4.8,4.4,8,4.4c1.7,0,3.4-0.4,5-1.5c4.4-2.8,5.8-8.5,3-13l-0.3-0.5c-2.8-4.4-8.5-5.8-13-3
		c-4.4,2.8-5.8,8.5-3,13L724,462.4z"/>
	<path d="M749.5,417.4l0.5,0.5c1.8,1.6,4.1,2.5,6.3,2.5c2.6,0,5.1-1.1,7.1-3.1c3.5-3.8,3.2-9.8-0.6-13.4l-0.5-0.5
		c-3.8-3.5-9.8-3.2-13.4,0.6C745.3,407.9,745.6,413.9,749.5,417.4z"/>
	<path d="M782.1,383.4l13.4,6.5c1.3,0.6,2.8,1,4.2,1c3.5,0,6.8-1.9,8.4-5.3c2.2-4.7,0.3-10.4-4.4-12.6l-13.4-6.5
		c-4.7-2.2-10.4-0.3-12.6,4.4C775.5,375.5,777.4,381.2,782.1,383.4z"/>
	<path d="M817.1,370.2l0.2,0.1c1,0.3,1.9,0.4,2.9,0.4c4,0,7.7-2.6,9-6.5c1.6-4.9-1.1-10.3-6.1-11.9l-0.2-0.1
		c-4.9-1.6-10.3,1.1-11.9,6.1C809.4,363.2,812,368.6,817.1,370.2z"/>
	<path d="M816.3,316.5l10.9,0.4c0.1,0,0.2,0,0.3,0c5,0,9.2-4.1,9.4-9.1c0.2-5.2-3.8-9.6-9.1-9.7l-10.9-0.4c-5.1-0.3-9.6,3.8-9.7,9.1
		C807,312.1,811.1,316.4,816.3,316.5z"/>
	<path d="M580.2,488.9c0.9,0.2,1.7,0.3,2.6,0.3c4.1,0,7.9-2.7,9.1-6.8l2.4-8.3c1.4-5-1.5-10.3-6.5-11.6c-5-1.5-10.3,1.5-11.6,6.5
		l-2.4,8.3C572.3,482.3,575.2,487.5,580.2,488.9z"/>
	<path d="M362.3,363.7c1.2,4.9,5.6,8.2,10.4,8.2c0.7,0,1.6-0.1,2.5-0.3c5.7-1.3,9.3-7.1,7.9-12.7l-0.3-1.2c-1.3-5.8-6.9-9.3-12.6-8
		c-5.8,1.3-9.3,6.9-8,12.6L362.3,363.7z"/>
	<path d="M378.7,384.7c-5.4,2-8.3,8.1-6.2,13.7c0.4,1.2,1,2.4,1.4,3.5c0.1,0.7,0.3,1.4,0.6,2.1c1.2,2.9,2.5,5.7,3.7,8.5
		c3.6,8.4,7.7,16.7,12.2,24.6c1.9,3.4,5.6,5.4,9.3,5.4c1.7,0,3.5-0.4,5.1-1.4c5-2.8,6.8-9.2,4.2-14.2c-0.2-1.1-0.5-2.1-1.2-3.1
		c-3.7-6.5-7.2-13.4-10.4-20.2c-1.8-4.2-3.6-8.4-5.2-12.7C390.2,385.5,384.1,382.7,378.7,384.7z"/>
	<path d="M818.6,506.3c2.6,0,5.2-1,7.3-2.9l1.6-1.5c4.3-4.1,4.4-10.8,0.3-15c-4.1-4.3-10.8-4.4-15-0.3l-1.4,1.4
		c-4.3,4.1-4.5,10.7-0.4,15C812.9,505.2,815.7,506.3,818.6,506.3z"/>
	<path d="M836.5,477.3c1.9,1.6,4.3,2.4,6.6,2.4c3.1,0,6.2-1.4,8.2-4c8.1-10,15.6-20.7,22.1-31.7c3-5,1.4-11.5-3.6-14.5
		s-11.5-1.4-14.5,3.6c-6.1,10.1-13,20.1-20.5,29.4C831.2,467,831.9,473.6,836.5,477.3z"/>
	<path d="M876.5,416.8c1.4,0.6,2.8,0.9,4.2,0.9c4.1,0,8-2.4,9.7-6.4c15.1-34.9,22.8-72.1,22.8-110.4c0-15.3-1.3-30.6-3.6-45.4
		c-1-5.8-6.4-9.7-12.2-8.8s-9.7,6.4-8.8,12.2c2.2,13.8,3.4,27.9,3.4,42c0,35.5-7.1,69.8-20.9,102C868.6,408.2,871,414.4,876.5,416.8
		z"/>
	<path d="M326.2,373.7c2.1,9.2,4.8,18.4,7.8,27.4c1.5,4.5,5.7,7.3,10,7.3c1.1,0,2.2-0.2,3.3-0.5c5.6-1.8,8.5-7.9,6.7-13.5
		c-2.8-8.3-5.2-16.9-7.3-25.5c-0.6-2.9-1.3-5.8-1.9-8.7c-1.2-5.8-6.7-9.4-12.5-8.2c-5.8,1.2-9.4,6.7-8.2,12.5
		C324.8,367.6,325.5,370.7,326.2,373.7z"/>
	<path d="M939.8,311.4c5.9,0,10.6-4.7,10.6-10.6c0-4.5-0.1-9.1-0.3-13.6c-0.2-5.9-5.2-10.4-11-10.1c-5.9,0.2-10.4,5.2-10.1,11
		c0.2,4.3,0.3,8.5,0.3,12.7C929.2,306.6,934.1,311.4,939.8,311.4z"/>
	<path d="M289.2,310.9c2.8,0,5.6-1.2,7.5-3.1c1.9-2,3.1-4.7,3.1-7.5s-1.2-5.6-3.1-7.5c-2-1.9-4.7-3.1-7.5-3.1s-5.6,1.2-7.5,3.1
		c-2,2-3.1,4.7-3.1,7.5s1.2,5.6,3.1,7.5C283.6,309.8,286.4,310.9,289.2,310.9z"/>
	<path d="M975.6,346.9c0.3,0,0.7,0,1.1,0c5.3,0,10-4.1,10.6-9.6V337c0.5-5.9-3.7-11-9.5-11.6c-5.9-0.6-11,3.7-11.6,9.5v0.3
		C965.5,341.1,969.7,346.4,975.6,346.9z"/>
	<path d="M1193.8,315.9l-1.9-0.6c-2.4-0.9-4.6-1.7-6.9-2.6c-56.1-21.5-108.2-53.1-163.5-86.4C911,159.3,796.8,90.1,634.1,90.1
		s-276.9,69.1-387.5,136c-57.5,34.8-111.8,67.6-170.5,89.1c-9.2,3.3-13.9,13.5-10.6,22.7s13.5,13.9,22.7,10.6
		c3.7-1.4,7.5-2.8,11.1-4.3c14.1-4.9,20.7,3.1,22.9,6.5c0.2,0.4,0.5,1,0.7,1.4v0.1l0,0c2.5,4.3,4.9,8.7,7.5,13
		c14,23.5,30.1,47,48,69.6c2.1,2.7,5.2,4.1,8.3,4.1c2.2,0,4.6-0.7,6.5-2.2c4.6-3.6,5.4-10.3,1.8-14.9c-5.8-7.4-11.3-14.9-16.8-22.3
		c-1.6-2.7-4.9-9.9,2.6-14.7c8.8-5.7,14.9,3.7,14.9,3.7l-0.1-0.1c28.5,38.9,64.3,80.6,108.6,118.2C400.1,588,511,629.3,633.9,629.3
		s234-41.3,329.8-122.8c13.6-11.5,26.4-23.5,38.5-35.7l-0.7,0.9c0,0,8.7-8.1,15-1.5c6,6.2,0.9,13.5-1,15.6
		c-17.7,17.4-36.3,33.8-55.7,48.7c-4.6,3.6-5.4,10.3-1.9,14.9c2.1,2.7,5.2,4.2,8.4,4.2c2.2,0,4.6-0.7,6.5-2.2
		c36.5-28.3,70.6-61.1,101.5-97.5c2.5-3,4.9-5.9,7.4-8.9c5-6.2,10-12.6,14.9-18.9c1.2-1.6,2.4-3.1,3.5-4.7
		c3.5-4.7,2.6-11.3-2.1-14.9s-11.3-2.6-14.9,2.1c-1.2,1.5-2.2,3-3.4,4.5c-4.7,6.2-9.5,12.3-14.4,18.4c-1.9,2.4-3.8,4.7-5.9,7.1
		c-0.7,0.6-9.4,8.8-17.1,1.7c-5.9-5.4-0.2-13.1,0.9-14.4c27.1-32.6,49.1-64.7,66.8-92.7l0,0l0,0c0.4-0.6,0.7-1.2,1.2-1.8
		c1.9-2.8,6.3-7.2,12.4-3.8c7.2,3.8,4.8,10.9,3.7,13.4c-7.2,12.9-15.2,26.1-23.9,39.3c-3.2,4.9-1.9,11.4,3,14.7
		c1.8,1.2,3.8,1.8,5.9,1.8c3.4,0,6.8-1.7,8.9-4.7c9.2-13.8,17.5-27.5,25-40.9c2.2-3.5,9.1-11.2,23-6.2c1.1,0.4,2.1,0.9,3.3,1.3
		c2.5,1,4.9,1.8,7.4,2.8l2,0.7c2,0.7,4.1,1.1,6,1.1c7.3,0,14-4.5,16.7-11.6C1207.8,329.5,1203,319.3,1193.8,315.9z M170.8,369.4
		c-7.7,4.9-13.2-1.3-14.7-3.2c-2.5-4-4.9-7.8-7.3-11.8c-2.8-4.7-5.4-9.4-8-14c-1.2-2.6-3.2-9.4,3.8-13.2c6.1-3.3,10.5,1.1,12.4,3.8
		c0.4,0.6,0.7,1.2,1.2,1.8v0.1l0,0c4.6,7.3,9.4,14.7,14.6,22.5l-0.2-0.2C172.5,355.1,178.5,364.5,170.8,369.4z M836.4,235.2
		c1.2,4.1-1.4,5.6-2.9,6.1L762.8,259l66.8-26.9C831.1,231.5,835,230.8,836.4,235.2z M810.5,209.8L810.5,209.8l7.4-4.3
		c1.5-0.7,5.3-2,7.3,2.2c1.7,3.8-0.6,5.7-2,6.4l-9.2,3.7c-0.6,0.1-3.3,0.5-4.9-2.5C807.4,212.1,810.5,209.8,810.5,209.8z M760.5,214
		l29.2-22.9l0,0l0,0l0,0l0.4-0.3c1.3-1,4.9-3,6.9,0.7c1.2,2.1-0.1,4-1.7,5.2L761.8,216c-0.7,0.3-1.3,0.3-1.7-0.3
		C759.7,215.2,760.1,214.5,760.5,214z M794.1,219.3L794.1,219.3c0,0,0.1,0,0.2-0.1l0.4-0.2c1.3-0.6,4-1.6,5.2,1.3
		c1,2.2-1.4,3.8-3,4.6l-41.5,16.8L794.1,219.3z M587.9,427.8l-0.7,2.7c-1.4,5,1.5,10.3,6.5,11.6c0.9,0.2,1.7,0.3,2.6,0.3
		c4.1,0,7.9-2.7,9.1-6.8l0.7-2.7l-0.7,5.3c-0.7,5.1,2.9,9.9,8,10.7c0.4,0.1,0.9,0.1,1.3,0.1c4.6,0,8.7-3.4,9.3-8.1l0.7-5.3v1.6
		c0,5.2,4.3,9.4,9.4,9.4c5.2,0,9.4-4.3,9.4-9.4V435c1,4.3,4.8,7.4,9.2,7.4c0.4,0,0.9,0,1.3-0.1c4.9-0.6,8.3-5,8-9.9l0.9,3.2
		c1.2,4.2,4.9,6.8,9.1,6.8c0.9,0,1.7-0.1,2.6-0.3c5-1.4,7.9-6.6,6.5-11.6l-0.7-2.7l1.6,3.6c1.6,3.5,5,5.6,8.7,5.6
		c1.3,0,2.6-0.2,3.8-0.9c4.8-2.1,6.9-7.7,4.8-12.5l-1.6-3.6l2.6,4.2c1.8,2.9,4.9,4.5,8,4.5c1.7,0,3.4-0.4,5-1.4
		c4.4-2.8,5.8-8.5,3-13l-2.6-4.2l2.5,2.9c1.8,2.2,4.5,3.4,7.3,3.4c2.1,0,4.3-0.7,6.1-2.2c4-3.3,4.5-9.3,1.2-13.2l-2.5-2.9l3.7,3.4
		c1.8,1.6,4.1,2.5,6.3,2.5c2.6,0,5.1-1.1,7.1-3.1c3.5-3.8,3.2-9.8-0.7-13.4l-3.7-3.4l6.7,4.6c1.6,1.1,3.4,1.6,5.2,1.6
		c3,0,6-1.5,7.8-4.2c2.9-4.3,1.8-10.1-2.6-13.1l-6.7-4.6l7.6,3.7c1.3,0.6,2.8,1,4.2,1c3.5,0,6.8-1.9,8.4-5.3
		c2.2-4.7,0.3-10.4-4.4-12.6l-7.6-3.7l27.9,9.1c1,0.3,1.9,0.4,2.9,0.4c4,0,7.7-2.6,9-6.5c1.6-4.9-1.1-10.3-6.1-11.9l-27.9-9.1
		l16.1,2.9c0.5,0.1,1.1,0.1,1.6,0.1c4.5,0,8.4-3.2,9.3-7.8c0.9-5.1-2.6-10-7.7-10.9l-16.1-2.9l21.4,0.7c0.1,0,0.2,0,0.3,0
		c5,0,9.2-4.1,9.4-9.1c0.2-5.2-3.8-9.6-9.1-9.7l-21.4-0.7l31.3-3.3c5.1-0.5,9-5.2,8.4-10.4c-0.5-5.1-5.2-8.9-10.4-8.4l-31.3,3.3
		l69.9-17.4c1.7-0.3,5.7-0.5,6.4,4.2c0.6,4.2-2.1,5.3-3.7,5.7l-11.5,1.2c-5.1,0.5-9,5.2-8.4,10.4c0.5,4.8,4.6,8.4,9.4,8.4
		c0.3,0,0.6,0,1,0l12-1.3c2,0,4.9,0.5,5.4,3.4c0.1,3.1,0.2,6.2,0.2,9.2c0,0.1,0,0.2,0,0.2c-1.9,1.7-3.2,4.1-3.2,6.7
		c-0.1,2.8,1,5.2,2.8,6.9c-0.1,2.4-0.3,4.8-0.5,7.2c0,0.1,0,0.1,0,0.2c-0.6,5-5.9,5.1-7.2,5l-24-4.3c-5.1-0.9-10,2.6-10.9,7.7
		s2.6,10,7.7,10.9l23.4,4.2c1.3,0.3,6.4,1.9,5.9,6.3c-0.7,2.9-1.5,5.7-2.2,8.5c-2,1.1-3.6,2.9-4.4,5.2c-0.7,2.4-0.5,4.8,0.4,6.8
		c-1,2.8-2,5.4-3.1,8.1c-2.4,4.1-8.2,2.1-8.2,2.1h0.1c-4.2-1-8.7,1-10.7,5c-2,4.1-0.7,9,2.8,11.6l0,0c0,0,4.6,2.8,1.9,7.4
		c-2.1,3.6-6.1,2-7.1,1.5l-6.2-4.2c-4.3-2.9-10.1-1.8-13.1,2.6c-2.9,4.3-1.8,10.1,2.6,13.1l6,4.1c1.4,1.1,4.2,3.8,1.2,7.6
		c-2.7,3.2-5.3,1.9-6.6,1l-10.9-9.8c-3.8-3.5-9.8-3.2-13.4,0.7c-3.5,3.8-3.2,9.8,0.7,13.4l10.1,9.2c1.2,1.3,3.5,4.4,0.1,7.6
		c-3.1,2.9-5.6,1.2-6.7,0.1l-6.7-8c-3.3-4-9.3-4.5-13.2-1.2c-4,3.3-4.5,9.3-1.2,13.2l6.1,7.3c1,1.4,3,4.9-1,7.6
		c-4.7,3.3-7.3-1.7-7.3-1.7l0.7,1.5c-3-3.3-8-4.1-12-1.6c-4.2,2.7-5.6,8-3.3,12.3l-1.7-2.7c0.6,1,3.1,5.4-1.7,7.8
		c-3.7,1.9-5.7-0.4-6.5-1.8l-1.2-2.6c-2.1-4.8-7.7-6.9-12.5-4.8s-6.9,7.7-4.8,12.5l0.7,1.7c0.5,1.6,1.5,5.6-3,7.1
		c-4,1.4-5.6-1.2-6.2-2.7l-5.7-19.7c-1.4-5-6.6-7.9-11.6-6.5s-7.9,6.6-6.5,11.6l5.3,18.7c0.3,1.7,0.7,5.7-4,6.5
		c-4.2,0.7-5.3-1.9-5.8-3.5l-1.1-7.4c-0.7-5.1-5.6-8.8-10.7-8c-5.1,0.7-8.8,5.4-8,10.7l0.9,6.4c0.1,1.7-0.1,5.8-4.8,6
		c-4.2,0.2-5-2.7-5.2-4.3V504c0-5.2-4.3-9.4-9.4-9.4c-5.2,0-9.4,4.3-9.4,9.4v3.1c-0.1,1.7-0.9,5.7-5.6,5.2c-4.2-0.4-4.6-3.4-4.6-4.9
		l2.4-16.3c0.7-5.1-2.9-9.9-8-10.7c-5.1-0.7-9.9,2.9-10.7,8l-2.1,15.2c-0.2,1.3-1.4,4.7-6.3,4.6c-4.1,0-5-4.4-5-4.4l0,0
		c-0.5-3.6-3-6.7-6.7-7.8c-3.6-1.1-7.5,0.2-9.7,3l0.1-0.1c0,0-1.9,3-7.1,1.1c-4-1.5-3.5-4.5-3-6l0.2-0.4c0-0.1,0.1-0.2,0.1-0.3
		c0-0.1,0.1-0.1,0.1-0.1l-0.1,0.1c1.8-4.7-0.3-10-4.9-12.1c-4.7-2-10,0-12.3,4.5l0.2-0.6c-0.4,1.1-2.8,5.6-7.5,3
		c-3.6-2-2.9-4.9-2.1-6.4l7.3-11.6c2.8-4.4,1.4-10.3-3-13c-4.4-2.8-10.3-1.4-13,3l-6.7,10.8c-1,1.4-3.7,4.3-7.5,1.5
		c-3.3-2.6-2.1-5.3-1.3-6.6l14-16.7c0.2,0,0.5,0,0.7,0c2.8,0,5.7-0.2,8.5-0.7c17-2.9,30.9-12.3,38.9-25c0,3.6,2,7.2,5.6,8.7
		c1.3,0.5,2.6,0.9,3.8,0.9C582.9,433.2,586.3,431.2,587.9,427.8z M493.4,397.5c0-16.8,13.8-30.2,34.1-30.2
		c20.3,0,28.1,17.6,28.5,30.2c0.5,15.9-12.7,27.7-28.5,30.2c-1.7,0.3-3.4,0.4-5,0.4C505.2,428.2,493.4,412.8,493.4,397.5z
		 M501.2,444.5l-7.3,8.7c-1.2,1.3-4.3,3.7-7.6,0.4c-3-3-1.4-5.6-0.3-6.7l7.6-6.8C496,441.8,498.6,443.3,501.2,444.5z M447.2,235.9
		c13.2-37.8,40.7-64.1,80.9-64.1c20.6,0,49,12.4,51.1,44.8c2.6,40.3-27.5,40.1-37.7,79.1c-9.5,36-26.2,48.4-43.7,48.4
		c-1.5,0-3.1-0.1-4.6-0.3c-4.6-0.5-8.8-1.6-12.6-3l0,0c-0.6-0.2-1.4-0.5-2-0.9c-0.3-0.1-0.7-0.3-1.1-0.4
		c-9.7-4.3-17.2-11.3-22.8-19.9c0-0.1-0.1-0.1-0.1-0.2l-1.8-2.9C439.3,293,439.1,259.4,447.2,235.9z M471.7,369.5
		c-4.7,2.2-6.6,7.9-4.4,12.6c1.2,2.5,3.4,4.3,5.9,4.9c-0.7,3.4-1.1,6.9-1.1,10.5c0,0.3,0,0.7,0,1.1l-15,10c-1.5,0.9-5.1,2.5-7.5-1.7
		c-2-3.6,0.2-5.8,1.6-6.5l2.4-1.1c4.7-2.2,6.6-7.9,4.4-12.6s-7.9-6.6-12.6-4.4L444,383c-1.6,0.6-5.4,1.7-7.2-2.8
		c-1.5-4,1-5.7,2.5-6.3l37.2-12.1c2.2,0.7,4.6,1.3,7.1,1.8L471.7,369.5z M480.7,426.3l-6.6,6c-1.4,1.1-4.8,3.1-7.6-0.6
		c-2.5-3.3-0.6-5.7,0.6-6.7l9.4-6.3C477.7,421.3,479.1,423.8,480.7,426.3z M434.5,355.8c-1.7,0.4-5.7,0.9-6.6-3.7
		c-1-4.1,1.8-5.4,3.3-5.9l15.4-2.7c2.1,2.2,4.5,4.3,6.8,6.2L434.5,355.8z M426.8,317.5l2.7-0.1c1.4,3.1,2.9,6.2,4.6,9.1l-5.2,1
		c-1.7,0.2-5.7,0.1-6.1-4.6C422.4,318.7,425.2,317.7,426.8,317.5z M344.2,245.4c1.9-10,4.4-20.1,7.4-29.9c1.2-3.2,4.6-10.7,11.3-9.2
		c8.4,1.9,4.9,11.8,4.9,11.8l0.3-0.6c-3,9.4-5.3,19-7.4,28.7v-0.4c0,0-1.4,10-10,8.5C344.1,253,344,247.5,344.2,245.4z M228.3,294.3
		c0.1-3.4,0.1-6.7,0.3-10.1c0.2-2.5,1.3-9,7.4-9c6.5,0,6.5,4.8,6.5,4.8v-0.2c0.1,5.4,4.4,10,9.9,10.4c0.2,0,0.4,0,0.6,0
		c5.6,0,10.3-4.4,10.6-10c0.3-5.4,0.7-11,1.3-16.5c0.5-2.9,2.6-9.1,9.6-8.5c6.5,0.5,6.7,7.4,6.5,10.1c0,0.2,0,0.5-0.1,0.7
		c0,0.3-0.1,0.4-0.1,0.4v-0.1c-0.1,1.4-0.3,2.9-0.4,4.3c-0.5,5.9,3.8,11,9.7,11.4c0.3,0,0.6,0,0.9,0c5.4,0,10-4.2,10.6-9.7
		c0.9-9.9,2.1-19.8,3.8-29.6c0.6-1.8,3.4-9,10.8-7.8c8.2,1.3,6.3,10.1,6.3,10.1l0.1-0.4c-2.5,13.7-4,27.6-4.6,41.6
		c-0.2,5.9,4.3,10.8,10.1,11.1c0.2,0,0.3,0,0.5,0c5.7,0,10.4-4.5,10.6-10.1c0.1-3.3,0.3-6.7,0.6-10c0.5-3,2.4-8.2,8.7-7.9
		c8.4,0.4,7.4,10.7,7.4,10.7v-0.1c-0.5,6.9-0.7,13.9-0.7,20.8c0,8.9,0.4,17.8,1.3,26.6c0.5,5.4,5.1,9.6,10.6,9.6c0.3,0,0.6,0,1,0
		c5.9-0.5,10.1-5.8,9.5-11.5c-0.7-8.1-1.2-16.5-1.2-24.7c0-38.9,8.8-76.9,25.4-111.6c0.9-1.6,4.5-7.7,10.9-5.2
		c7.1,2.7,4.5,9.8,4.5,9.8l0.6-1C401.1,226,392.2,263,392.2,301c0,133.4,108.6,242,242,242s242-108.6,242-242
		c0-35.6-7.9-70.4-22.7-102.1l0.6,1.1c0,0-2.6-7.1,4.5-9.8c5.7-2.1,9.2,2.2,10.5,4.4c4.3,9.5,8,19.2,11.1,29.1
		c1.4,4.5,5.6,7.5,10.1,7.5c1.1,0,2.1-0.1,3.2-0.5c5.6-1.7,8.7-7.6,7.1-13l0.1,0.3c0,0-2.4-9.8,4.9-11.8c6.6-1.7,10.1,5.9,11.3,9.2
		c3.8,12.8,6.8,25.9,8.9,39.1c0.9,5.2,5.3,9,10.5,9c0.5,0,1.1,0,1.7-0.1c5.8-1,9.7-6.3,8.9-12.2c-0.3-2.2-0.7-4.4-1.2-6.5l0.2,0.5
		c0,0-1.8-8.9,6.3-10.1c7.4-1.2,10.1,6,10.8,7.8c3.3,19,5,38.5,5,57.9c0,5.9,4.7,10.6,10.6,10.6c5.9,0,10.6-4.7,10.6-10.6
		c0-11.5-0.5-23-1.7-34.4l0.1,0.2c0,0-1.9-10.8,6.3-11.4c6.8-0.5,9,5.2,9.6,8.3c1,9.7,1.6,19.6,1.8,29.3c0.1,5.8,4.8,10.7,10.6,10.7
		c0.1,0,0.2,0,0.2,0c5.9,0,10.5-5.2,10.4-11.1c-0.1-3.2-0.2-6.3-0.3-9.5l0.1,0.5c0,0-0.2-7.7,6.2-7.7c7.5,0,7.4,9.9,7.4,9.9v-0.1
		c0.1,3,0.2,6,0.2,9l0,0c0,0,0.2,8.2-4,14.6c-0.1,0.2-0.3,0.4-0.5,0.7c-1.4,2-2.9,4.2-4.4,6.3c-0.2,0.3-0.4,0.6-0.4,0.6l0,0
		c-4.3,6.1-8.8,12.6-13.7,19.4c-0.9-0.3-1.7-0.6-2.7-0.7c-5.4-0.6-10.3,2.9-11.5,8.1v-0.1c0,0-2.6,14-14,29.8
		c-1.5,1.9-3,3.7-4.6,5.7l0.1-0.1c-1.2,1.6-4.2,1.6-3.4-2l-0.2,0.9c0.5-2.4,1.1-4.7,1.5-7.1c1.2-5.8-2.6-11.3-8.3-12.5
		c-5.8-1.2-11.3,2.6-12.5,8.3c-2.1,10.6-4.7,21-7.9,31.4c-3,8.1-10.8,24.9-24.8,40.9c-2.9,2.8-5.9,5.4-8.9,8.2l0.1-0.3
		c-1.8,1.9-5.1,0.9-3.6-2.6v0.1c5.8-11.2,10.8-22.9,15.2-34.8c2-5.6-0.9-11.6-6.3-13.6c-5.6-2-11.5,0.9-13.6,6.3
		c-10.4,28.4-24.8,54.7-43.2,78.5v-0.1c0,0-0.1,0.2-0.3,0.4c-0.7,1-1.5,1.9-2.2,2.9c-4,4.9-12.2,14.1-22,19.7h0.2
		c-57.3,34.3-126.7,58.2-209.9,58.2s-152.7-23.9-209.9-58.2h0.2c-9.4-5.3-17.4-14.1-21.6-19.1c-0.1-0.1-0.1-0.2-0.2-0.2
		c0-0.1-0.1-0.1-0.1-0.2c-14.4-18.3-26.6-38-36.3-59.1c-2.5-5.3-8.8-7.6-14.1-5.1c-5.3,2.5-7.6,8.8-5.1,14.1
		c1.7,3.6,3.4,7.2,5.2,10.7l-0.2-0.4c1.5,3.4-1.8,4.5-3.6,2.6l0.1,0.3c-3-2.7-6-5.4-8.9-8.2c-13.8-15.9-21.7-32.4-24.7-40.6
		c-2.9-9.5-5.3-19.1-7.4-28.8c-1.2-5.8-6.8-9.4-12.5-8.2c-5.8,1.2-9.4,6.8-8.2,12.5c0.3,1.4,0.6,2.8,1,4.2l-0.3-1.1
		c0.7,3.6-2.2,3.5-3.4,2v0.1c-0.4-0.5-0.9-1.1-1.3-1.5c-0.3-0.3-0.5-0.6-0.7-1c-12.4-15.7-15.9-31.2-16.6-34
		c-1-8.5-1.6-17.1-1.9-25.6c-0.2-5.9-5.2-10.5-11-10.1c-5.3,0.2-9.5,4.3-10,9.4v-0.2c-0.1,4-3.2,3.5-4.7,1.1c0,0-0.2-0.3-0.5-0.7
		c-1.5-2.1-2.9-4.2-4.3-6.2c-0.2-0.3-0.3-0.5-0.5-0.7C227.9,302.6,228.3,294.3,228.3,294.3L228.3,294.3z M492.9,576.2
		c-2,6-7.4,6-10.7,5.3c-58.2-19.4-112.6-50.4-162.7-93.1c-60.6-51.5-105-111.3-136.3-160c-1.3-2.5-5-11.3,3.6-16.3
		c7.9-4.6,14,1.6,15.9,4.1c27.5,40.6,73.1,107.4,142.5,165.4c43.9,36.8,90.8,64.2,140.2,82.4l-0.3-0.1
		C485.1,563.7,495.9,567.4,492.9,576.2z M1080,336c-31,47.2-73.9,103.5-131.3,152.4c-91.6,77.8-197.3,117.2-314.5,117.2
		c-32.6,0-64.2-3.1-95-9.1c-4.2-1.1-9.7-3.3-8.5-9.9c1.4-7.7,8.2-6.8,12.2-6.2c29.7,6.3,60.2,9.5,91.3,9.5
		c105.6,0,202.8-36.5,288.8-108.4c65.5-54.8,109.8-117.3,137.7-158.3l-0.7,1.2c0,0,6.9-10.7,16.7-5c10.1,5.9,3.3,17.1,3.3,17.1V336z
		"/>
</g>
</svg>
