<?xml version="1.0" encoding="utf-8"?>
<!-- Generator: Adobe Illustrator 24.2.0, SVG Export Plug-In . SVG Version: 6.00 Build 0)  -->
<svg version="1.1" id="WHITE_BAOBAB" xmlns="http://www.w3.org/2000/svg" xmlns:xlink="http://www.w3.org/1999/xlink" x="0px"
	 y="0px" viewBox="0 0 1270 800" style="enable-background:new 0 0 1270 800;" xml:space="preserve">
<style type="text/css">
	.st0{fill:#FFFFFF;}
</style>
<g>
	<g>
		<polygon class="st0" points="705,459 640,459 575,459 575,589 445,589 447.6,719 575,719 640,719 705,719 835,719 965,719 
			835,589 705,589 		"/>
	</g>
	<g>
		<polygon class="st0" points="835,199 835,329 705,329 705,459 835,459 835,589 965,589 965,459 965,329 965,199 965,69 		"/>
	</g>
	<g>
		<polygon class="st0" points="575,329 640,329 705,329 705,199 835,199 835,69 640,69 575,69 445,69 315,69 445,199 575,199 		"/>
	</g>
	<g>
		<polygon class="st0" points="575,459 575,329 445,329 445,199 315,199 315,459 315,589 315,719 445,589 445,459 		"/>
	</g>
</g>
</svg>
