<?xml version="1.0" encoding="utf-8"?>
<!-- Generator: Adobe Illustrator 24.2.0, SVG Export Plug-In . SVG Version: 6.00 Build 0)  -->
<svg version="1.1" id="WHITE_BAOBAB" xmlns="http://www.w3.org/2000/svg" xmlns:xlink="http://www.w3.org/1999/xlink" x="0px"
	 y="0px" viewBox="0 0 1270 800" style="enable-background:new 0 0 1270 800;" xml:space="preserve">
<style type="text/css">
	.st0{fill:#2B2D36;}
</style>
<g>
	<path class="st0" d="M635,270.4c-72,0-130.6,58.5-130.6,130.4S563,531.2,635,531.2s130.6-58.5,130.6-130.4S707,270.4,635,270.4z
		 M635,479.5c-43.5,0-78.8-35.3-78.8-78.7c0-43.4,35.4-78.7,78.8-78.7c43.5,0,78.8,35.3,78.8,78.7
		C713.8,444.2,678.5,479.5,635,479.5z"/>
	<path class="st0" d="M973.9,371.9h-10.5H922h-53.2C855.9,254.9,756,164.3,635,164.3c-129.7,0-235.3,106.2-235.3,235.7
		S505.3,637,635,637c102.5,0,189.9-67.7,222.1-155.4h-55.8C772,540.1,708.5,585.7,635,585.7c-101.2,0-183.5-83-183.5-184.1
		c0-101.1,82.3-183.7,183.5-183.7c101.2,0,183.5,80.2,183.5,181.3c0,8.8-0.7,16.5-1.9,23.8h15.4h36.7H922
		c-13.1,153.6-136.8,263.8-287,263.8c-158.9,0-288.2-128.2-288.2-286.9S476.1,111.2,635,111.2c132,0,243.6,92.5,277.5,209.5H966
		C930.7,174.4,795.8,60,635,60c-187.5,0-340,153-340,340.2C295,587.4,447.5,740,635,740s340-153.7,340-340.9
		C975,390.4,974.6,386.5,973.9,371.9z"/>
</g>
</svg>
