<?xml version="1.0" encoding="utf-8"?>
<!-- Generator: Adobe Illustrator 24.2.0, SVG Export Plug-In . SVG Version: 6.00 Build 0)  -->
<svg version="1.1" id="WHITE_COGENCY" xmlns="http://www.w3.org/2000/svg" xmlns:xlink="http://www.w3.org/1999/xlink" x="0px"
	 y="0px" viewBox="0 0 1270 800" style="enable-background:new 0 0 1270 800;" xml:space="preserve">
<style type="text/css">
	.st0{fill:#2B2D36;}
</style>
<g>
	<g>
		<g>
			<path class="st0" d="M394.4,400.3c0-47.9,10.9-95.6,31.9-138.6c10.5-21.5,23.4-41.8,38.5-60.4c7.3-9.1,16.7-17.2,20.1-28.8
				c2.9-10.1,1.4-21.3-4.2-30.3c-5.1-8.3-13.3-14.4-22.6-16.9c-5.3-1.5-11-1.7-16.4-0.7c-2.9,0.5-6.5,1.3-9.1,2.8
				c-2.3,1.4-4.4,3.3-6.5,5c-17.2,13.5-33.1,28.6-47.4,45c-28.8,33.1-51,71.5-65.2,113c-14.5,42.4-20.4,87.4-17.5,132
				c2.6,39.6,12.1,78.9,28.2,115.2c15.6,35.3,37.3,67.7,63.7,95.7c26.6,28.1,57.8,51.7,92.3,69.4c35,18,73.1,29.8,112.1,34.7
				c48.6,6.2,98.4,1.7,145.2-13.1c11.8-3.8,23.4-8.2,34.8-13.2c-41.3,8.2-84.3,7.9-125.5-0.6c-34.2-7.1-67.3-20-97.3-37.9
				c-29.5-17.6-56.2-40.1-78.6-66.1c-22.7-26.4-40.9-56.4-53.9-88.7c-13.3-33.1-20.8-68.3-22.3-104
				C394.5,409.3,394.4,404.8,394.4,400.3z"/>
		</g>
		<g>
			<path class="st0" d="M729,381.2c6.8,0,11.7-4.6,13.7-10.8c2.6-7.9,3.6-16.3,2.7-24.6c-1.2-12.6-6.3-24.6-14.6-34
				c-8.4-9.5-19.8-16.1-32.1-18.9c-15.2-3.5-30.3-1-44,6.2c-15.5,8.2-29.1,19.9-39.3,34.1c16.6-13.9,40.7-21.4,62.2-17.4
				c9.7,1.9,19,6.2,25.9,13.4c7.6,7.9,11.2,18.4,11.8,29.2c0.2,4.6-0.9,9.4,0.7,13.8C718,377.5,723.3,381.2,729,381.2z"/>
		</g>
		<g>
			<path class="st0" d="M837.8,127.2c-36.1-26.9-77.5-46.5-121.2-57.3C671.1,58.7,623.2,57,577,65c-26.4,4.5-52.1,12.2-76.6,22.8
				c17.2,12.1,29.8,30.1,35.4,50.3c6,21.7,3.5,45.3-6.8,65.3c-2.6,5.1-5.8,10-9.3,14.6c-3.2,4.2-7,7.9-10.4,12
				c-7.4,8.8-14.3,18.1-20.5,27.8c-12.2,19-22,39.6-28.9,61.2c-13.2,41-16.2,85.1-8.7,127.5c6.6,36.8,21.1,72.2,42.3,103
				c20.8,30.2,47.9,56.1,79.2,75.4c31.9,19.8,68,32.5,105.1,37.1c38.4,4.8,77.7,1.2,114.5-10.8c35.4-11.5,68.1-30.5,95.6-55.4
				c27.4-24.8,49.6-55.3,64.5-89.2C968.8,470,976,430.1,974.8,390c-0.4-13.2-1.5-26.3-3.3-39.2c-8.8,44.5-29.2,86.2-58.5,120.6
				c-28.8,33.7-65.6,60.4-106.9,76.5c-20.6,8.1-42.3,13.5-64.2,16.3c-19.7,2.5-39.9,3.2-59.5,0.2c-36.3-5.6-70.1-23.5-95.4-50.1
				c-25.5-26.9-41.5-62.1-45-99.1c-3.7-39.3,6.9-79.4,29.7-111.6c11.4-16.1,25.7-30.1,42-41.2c18.8-12.8,40-22,63-23.4
				c44.9-3,88.7,21.2,109.4,61.4c10.5,20.4,14.4,43.8,11.4,66.5c-2.8,21.1-11.2,41.2-28.8,54.2c-15.7,11.6-36.2,15.8-55.2,11.2
				c-18.8-4.6-35.3-17.5-44-34.7c-4.5-8.9-7.4-19.4-7.2-29.4c-11.1,1.9-27.3,18.5-24.4,48.8c2,20.7,13.1,37.2,29.1,50.6
				c17.3,14.4,38.7,19.2,57.5,20.3c23,1.2,42.8-2.9,62.9-10.1c19.6-7,38-17.1,54.4-29.6c16.3-12.6,30.8-27.5,42.6-44.5
				c11.8-16.9,21.1-35.8,27.2-55.5c6.5-21,9.4-43.2,8.8-65.3c-0.8-27.9-7.7-55.6-19.9-80.8c-11.4-23.5-28.3-44.7-47.5-62.2
				C848.1,135.4,843,131.2,837.8,127.2C837.7,127.1,863.2,146.7,837.8,127.2z"/>
		</g>
	</g>
</g>
</svg>
