<?xml version="1.0" encoding="utf-8"?>
<!-- Generator: Adobe Illustrator 24.2.0, SVG Export Plug-In . SVG Version: 6.00 Build 0)  -->
<svg version="1.1" id="WHITE_DEPEQUE" xmlns="http://www.w3.org/2000/svg" xmlns:xlink="http://www.w3.org/1999/xlink" x="0px"
	 y="0px" viewBox="0 0 1270 800" style="enable-background:new 0 0 1270 800;" xml:space="preserve">
<style type="text/css">
	.st0{fill:#2B2D36;}
</style>
<path class="st0" d="M923,264.5L923,264.5c-17.5-41-42.5-77.2-74.5-107.5c-31.9-30.3-70.4-54.3-114.6-71.3
	c-44-16.9-93-25.6-145.4-25.6H320.9v680h267.5c52.5,0,101.5-8.8,145.5-26.2c44-17.4,82.6-41.5,114.4-71.8
	c32-30.3,57-66.7,74.5-108.1c17.5-41.3,26.3-86.4,26.3-134v-1.9C949.2,350.5,940.3,305.5,923,264.5z M696,400
	c0,11.3-1.9,21.3-5.9,30.8c-3.9,9.1-9.1,16.8-16.1,23.4c-7.3,7-16.1,12.4-26.9,16.6c-10.7,4.2-23,6.4-36.6,6.4h-48.3V322.8h48.3
	c13.7,0,26.2,2.1,36.9,6.3c10.6,4.1,19.2,9.4,26.6,16.3c7,6.7,12.3,14.3,16.2,23.4C694.2,378.1,696,388.1,696,400z M562.1,542h48.4
	c21.8,0,42.1-3.7,60.4-10.9c18.3-7.2,34.4-17.3,47.7-29.9c13.4-12.7,23.9-27.9,31.2-45.2c7.3-17.3,11-36.1,11-55.9v-0.7
	c0-19.9-3.7-38.6-11-55.8c-7.3-17.2-17.8-32.3-31.2-45c-13.3-12.7-29.4-22.7-47.8-29.8c-18.3-7.1-38.6-10.7-60.4-10.7h-113v417.2
	H385.5V124.8h202.8c44.5,0,85.6,7.1,122.1,21.3c36.2,14,67.6,33.5,93.3,58c25.5,24.3,45.5,53.1,59.4,85.9
	c14,33,21.1,69.4,21.1,108.3v1.9c0,38.9-7.1,75.5-21.1,108.8c-13.9,33.1-33.9,62-59.4,86.3c-25.8,24.5-57.3,44.3-93.6,58.5
	c-36.4,14.3-77.4,21.7-121.8,21.7H562V542H562.1z"/>
</svg>
