<?xml version="1.0" encoding="utf-8"?>
<!-- Generator: Adobe Illustrator 24.2.0, SVG Export Plug-In . SVG Version: 6.00 Build 0)  -->
<svg version="1.1" id="WHITE_DISOLCLIMA" xmlns="http://www.w3.org/2000/svg" xmlns:xlink="http://www.w3.org/1999/xlink" x="0px"
	 y="0px" viewBox="0 0 1270 800" style="enable-background:new 0 0 1270 800;" xml:space="preserve">
<style type="text/css">
	.st0{fill:#2B2D36;}
</style>
<g>
	<path class="st0" d="M635.6,626.6C510.4,626.6,409,525.1,409,400c0-125.2,101.5-226.6,226.6-226.6c115.6,0,210.9,86.5,224.9,198.3
		h113.8C960,197.2,813.8,60,635.6,60h-340v340c0,187.8,152.2,340,340,340c178.2,0,324.3-137.1,338.7-311.6H860.4
		C846.6,540.1,751.1,626.6,635.6,626.6z"/>
	<path class="st0" d="M635.6,286.7c-62.7,0-113.4,50.7-113.4,113.3S573,513.3,635.5,513.3c52.8,0,97.2-36.1,109.7-85h115.2
		c1.1-9.3,1.8-18.7,1.8-28.3c0-9.6-0.6-19-1.8-28.3H745.4C732.7,322.8,688.4,286.7,635.6,286.7z"/>
</g>
</svg>
