<?xml version="1.0" encoding="utf-8"?>
<!-- Generator: Adobe Illustrator 24.2.0, SVG Export Plug-In . SVG Version: 6.00 Build 0)  -->
<svg version="1.1" id="WHITE_ISM" xmlns="http://www.w3.org/2000/svg" xmlns:xlink="http://www.w3.org/1999/xlink" x="0px" y="0px"
	 viewBox="0 0 1270 800" style="enable-background:new 0 0 1270 800;" xml:space="preserve">
<style type="text/css">
	.st0{fill:#2B2D36;}
</style>
<g>
	<polygon class="st0" points="730.1,200 942.7,600 1020.9,436.6 895,200 	"/>
	<rect x="1082.2" y="200" class="st0" width="145.7" height="400"/>
	<rect x="42.2" y="200" class="st0" width="145.7" height="400"/>
	<path class="st0" d="M539.5,338.4c-2.4-0.8-4.7-1.7-6.9-2.4l0,0c-2.6-0.9-5.5-2-8.4-3.1c-25.3-8.9-51.5-18.2-69.8-48
		c-11.6-18.9-6.7-60.6,0.2-82.5l0.7-2.4H310.1c-1.3,7.4-2.4,15.5-3.3,24.2c-4.8,51.4,3.8,95.3,25.6,130.6
		c44.2,71.8,108.5,94.5,143.1,106.7c2.4,0.8,4.7,1.7,6.9,2.4c2.6,0.9,5.5,2,8.4,3.1c25.3,8.9,51.4,18.2,69.8,48
		c11.7,18.9,6.7,60.6-0.2,82.5l-0.7,2.4H705c1.3-7.4,2.4-15.5,3.3-24.2c4.8-51.4-3.8-95.3-25.6-130.6
		C638.5,373.4,574.2,350.6,539.5,338.4z"/>
</g>
</svg>
