<?xml version="1.0" encoding="utf-8"?>
<!-- Generator: Adobe Illustrator 24.2.0, SVG Export Plug-In . SVG Version: 6.00 Build 0)  -->
<svg version="1.1" id="WHITE_BAOBAB" xmlns="http://www.w3.org/2000/svg" xmlns:xlink="http://www.w3.org/1999/xlink" x="0px"
	 y="0px" viewBox="0 0 1270 800" style="enable-background:new 0 0 1270 800;" xml:space="preserve">
<style type="text/css">
	.st0{fill:#2B2D36;}
</style>
<g>
	<path class="st0" d="M521.5,328c0-62.3,50.5-112.7,112.7-112.7V60c-188,0-340.4,152.4-340.4,340.4c0,84.4,30.8,161.5,81.6,221
		c62.4-73.1,155.2-119.4,258.8-119.4v-61.2C571.9,440.8,521.5,390.3,521.5,328z"/>
	<path class="st0" d="M634.2,501.9v238.8c103.6,0,196.4-46.4,258.8-119.4C830.6,548.3,737.8,501.9,634.2,501.9z"/>
	<path class="st0" d="M746.9,328c0-62.3-50.5-112.7-112.7-112.7v225.5C696.5,440.8,746.9,390.3,746.9,328z"/>
</g>
</svg>
