<?xml version="1.0" encoding="utf-8"?>
<!-- Generator: Adobe Illustrator 24.2.0, SVG Export Plug-In . SVG Version: 6.00 Build 0)  -->
<svg version="1.1" id="WHITE_BAOBAB" xmlns="http://www.w3.org/2000/svg" xmlns:xlink="http://www.w3.org/1999/xlink" x="0px"
	 y="0px" viewBox="0 0 1270 800" style="enable-background:new 0 0 1270 800;" xml:space="preserve">
<style type="text/css">
	.st0{fill:#2B2D36;}
</style>
<path class="st0" d="M634,50c-193.3,0-350,156.7-350,350c0,193.3,156.7,350,350,350s350-156.7,350-350C984,206.7,827.3,50,634,50z
	 M741.8,635.3c-22.7,0.6-34.6,5.5-47.1,10.8c-14.2,5.9-30.2,12.6-60.7,12.6s-46.5-6.7-60.7-12.6c-12.5-5.2-24.4-10.2-47-10.8
	c-12.8-5.9-25-12.7-36.5-20.4c8.7-1.8,19-3.1,31.9-3.1c30.4,0,46.5,6.7,60.7,12.6c13.3,5.6,25.9,10.8,51.6,10.8
	c25.7,0,38.3-5.3,51.6-10.8c14.2-5.9,30.2-12.6,60.6-12.6c13,0,23.3,1.2,32,3.1C766.8,622.6,754.5,629.4,741.8,635.3z M826.1,573.5
	c-11.5-2.5-20.1-6.1-28.1-9.4c-13.3-5.6-25.9-10.8-51.6-10.8c-25.7,0-38.3,5.3-51.6,10.8c-14.2,5.9-30.2,12.6-60.7,12.6
	s-46.5-6.7-60.7-12.6c-13.3-5.6-25.9-10.8-51.6-10.8c-25.7,0-38.3,5.3-51.6,10.8c-8,3.3-16.6,6.9-28,9.4c-6-6.7-11.7-13.7-17-21
	c15.8-1.6,25.7-5.7,36-10c14.2-5.9,30.2-12.6,60.6-12.6c30.4,0,46.5,6.7,60.7,12.6c13.3,5.6,25.9,10.8,51.6,10.8
	c25.7,0,38.3-5.3,51.6-10.8c14.2-5.9,30.2-12.6,60.6-12.6c30.4,0,46.5,6.7,60.7,12.6c10.3,4.3,20.2,8.4,36.1,10.1
	C837.8,559.8,832.1,566.8,826.1,573.5z M875.2,493.9c-5,0.5-10.5,0.8-16.6,0.8c-30.4,0-46.5-6.7-60.7-12.6
	c-13.3-5.6-25.9-10.8-51.6-10.8c-25.7,0-38.3,5.3-51.6,10.8c-14.2,5.9-30.2,12.6-60.7,12.6s-46.5-6.7-60.7-12.6
	c-13.3-5.6-25.9-10.8-51.6-10.8c-25.7,0-38.3,5.3-51.6,10.8c-14.2,5.9-30.2,12.6-60.7,12.6c-6,0-11.5-0.3-16.5-0.7
	c-3.1-8.1-5.9-16.3-8.2-24.8c6.8,1.3,14.8,2.1,24.7,2.1c25.7,0,38.3-5.3,51.6-10.8c14.2-5.9,30.2-12.6,60.6-12.6
	c30.4,0,46.5,6.7,60.7,12.6c13.3,5.6,25.9,10.8,51.6,10.8c25.7,0,38.3-5.3,51.6-10.8c14.2-5.9,30.2-12.6,60.6-12.6
	c30.4,0,46.5,6.7,60.7,12.6c13.3,5.6,25.9,10.8,51.6,10.8c10,0,18-0.8,24.8-2.1C881.1,477.6,878.3,485.8,875.2,493.9z M892.5,411.8
	H375.6c-0.2-3.9-0.3-7.8-0.3-11.7c0-3.9,0.1-7.8,0.3-11.7h50.8c-5-2.7-10.5-6.7-16.2-12.3c-21.4-21.4-18.3-40.1-18.3-40.1
	s18.7-3.1,40.1,18.3c14.1,14.1,17.5,27,18.2,34.2h155.4L495.9,278.5c-5.6,4.6-17.2,11.2-37,11.2c-30.2,0-41.3-15.4-41.3-15.4
	s11.1-15.4,41.3-15.4c8,0,14.6,1.1,20,2.7L443,225.6c5.3-5.8,10.8-11.3,16.6-16.6l82.7,82.7c-1.2-4.9-2-10.7-2-17.4
	c0-30.2,15.4-41.3,15.4-41.3s15.4,11.1,15.4,41.3c0,18.7-5.9,30-10.4,36l61.5,61.5V216.4c-7.2-0.7-20.1-4.2-34.1-18.2
	c-21.4-21.4-18.3-40.1-18.3-40.1s18.7-3.1,40.1,18.3c5.6,5.6,9.5,11,12.2,16v-50.7c3.9-0.2,7.8-0.3,11.8-0.3c3.9,0,7.8,0.1,11.7,0.3
	v50.9c2.7-5,6.7-10.5,12.3-16.2c21.4-21.4,40.1-18.3,40.1-18.3s3.1,18.7-18.3,40.1c-14.1,14.1-27,17.5-34.2,18.2v155.4l61.6-61.6
	c-4.5-6-10.3-17.3-10.3-35.9c0-30.2,15.4-41.3,15.4-41.3s15.4,11.1,15.4,41.3c0,6.7-0.8,12.4-2,17.3l82.6-82.6
	c5.8,5.3,11.3,10.8,16.6,16.6l-36,36c5.5-1.6,12.1-2.7,20.1-2.7c30.2,0,41.3,15.4,41.3,15.4s-11.1,15.4-41.3,15.4
	c-19.9,0-31.5-6.7-37.1-11.3L662.3,388.4h155.4c0.7-7.2,4.2-20.1,18.2-34.2c21.4-21.4,40.1-18.3,40.1-18.3s3.1,18.7-18.3,40.1
	c-5.7,5.7-11.1,9.6-16.2,12.3h50.9c0.1,2.2,0.1,4.4,0.2,6.5v10.4C892.6,407.4,892.6,409.6,892.5,411.8z"/>
</svg>
